HIERARCHY
ROOT newVegas:Hips
{
	OFFSET 0.000000 96.479958 0.000000
	CHANNELS 6 Xposition Yposition Zposition Xrotation Yrotation Zrotation
	JOINT newVegas:Pelvis
	{
		OFFSET 0.000000 0.000000 0.000000
		CHANNELS 3 Xrotation Yrotation Zrotation
		JOINT newVegas:LeftUpLeg
		{
			OFFSET 18.735201 -5.666702 -4.541200
			CHANNELS 3 Xrotation Yrotation Zrotation
			JOINT newVegas:LeftLeg
			{
				OFFSET -0.021200 -31.938179 0.493100
				CHANNELS 3 Xrotation Yrotation Zrotation
				JOINT newVegas:LeftFoot
				{
					OFFSET 0.021200 -31.938179 -4.336299
					CHANNELS 3 Xrotation Yrotation Zrotation
					JOINT newVegas:LeftToeBase
					{
						OFFSET 0.943001 -26.722000 15.023500
						CHANNELS 3 Xrotation Yrotation Zrotation
						End Site
						{
							OFFSET 0.000000 30.670183 0.000000
						}
					}
				}
				JOINT newVegas:Left_PantLeg
				{
					OFFSET 0.663870 -9.044666 -1.108900
					CHANNELS 3 Xrotation Yrotation Zrotation
					End Site
					{
						OFFSET 1.415995 20.635357 0.000000
					}
				}
			}
		}
		JOINT newVegas:RightUpLeg
		{
			OFFSET -18.735201 -5.666702 -4.541200
			CHANNELS 3 Xrotation Yrotation Zrotation
			JOINT newVegas:RightLeg
			{
				OFFSET 0.018946 -31.938133 0.493100
				CHANNELS 3 Xrotation Yrotation Zrotation
				JOINT newVegas:RightFoot
				{
					OFFSET -0.018946 -31.938126 -4.336299
					CHANNELS 3 Xrotation Yrotation Zrotation
					JOINT newVegas:RightToeBase
					{
						OFFSET -0.943001 -26.722004 15.023500
						CHANNELS 3 Xrotation Yrotation Zrotation
						End Site
						{
							OFFSET 0.000000 30.670187 0.000000
						}
					}
				}
				JOINT newVegas:Right_PantLeg
				{
					OFFSET -0.661674 -9.044716 -1.108900
					CHANNELS 3 Xrotation Yrotation Zrotation
					End Site
					{
						OFFSET -1.415958 20.635269 0.000000
					}
				}
			}
		}
	}
	JOINT newVegas:Spine
	{
		OFFSET 0.000000 10.199997 -0.299500
		CHANNELS 3 Xrotation Yrotation Zrotation
		JOINT newVegas:Spine1
		{
			OFFSET 0.000000 11.900002 -1.516600
			CHANNELS 3 Xrotation Yrotation Zrotation
			JOINT newVegas:Spine2
			{
				OFFSET 0.000000 13.600006 -2.842500
				CHANNELS 3 Xrotation Yrotation Zrotation
				JOINT newVegas:Neck
				{
					OFFSET 0.000000 9.624100 -2.890100
					CHANNELS 3 Xrotation Yrotation Zrotation
					JOINT newVegas:Head
					{
						OFFSET 0.000000 14.068802 -1.351900
						CHANNELS 3 Xrotation Yrotation Zrotation
						JOINT newVegas:Hair_Back
						{
							OFFSET 0.000000 3.231903 -17.524799
							CHANNELS 3 Xrotation Yrotation Zrotation
							End Site
							{
								OFFSET 0.000000 19.849884 0.000000
							}
						}
						JOINT newVegas:Hair_Front
						{
							OFFSET 0.000000 31.260406 4.573800
							CHANNELS 3 Xrotation Yrotation Zrotation
							JOINT newVegas:Hair_Front1
							{
								OFFSET 0.000000 2.284103 11.993300
								CHANNELS 3 Xrotation Yrotation Zrotation
								JOINT newVegas:Hair_Front2
								{
									OFFSET 0.000000 2.284103 11.993300
									CHANNELS 3 Xrotation Yrotation Zrotation
									End Site
									{
										OFFSET 0.000000 12.208862 0.000000
									}
								}
							}
						}
						JOINT newVegas:Jowel
						{
							OFFSET 0.000000 -7.458206 6.864100
							CHANNELS 3 Xrotation Yrotation Zrotation
							End Site
							{
								OFFSET 0.000000 19.849884 0.000000
							}
						}
					}
				}
				JOINT newVegas:LeftShoulder
				{
					OFFSET 15.263000 10.923401 -0.547700
					CHANNELS 3 Xrotation Yrotation Zrotation
					JOINT newVegas:LeftArm
					{
						OFFSET 25.438599 -2.830597 -13.032500
						CHANNELS 3 Xrotation Yrotation Zrotation
						JOINT newVegas:LeftForeArm
						{
							OFFSET 29.960503 0.000000 0.000000
							CHANNELS 3 Xrotation Yrotation Zrotation
							JOINT newVegas:LeftHand
							{
								OFFSET 27.849251 0.000000 0.000000
								CHANNELS 3 Xrotation Yrotation Zrotation
								JOINT newVegas:LeftHandThumb1
								{
									OFFSET 4.487587 -3.305161 6.305391
									CHANNELS 3 Xrotation Yrotation Zrotation
									JOINT newVegas:LeftHandThumb2
									{
										OFFSET 5.480453 -3.164139 3.164143
										CHANNELS 3 Xrotation Yrotation Zrotation
										JOINT newVegas:LeftHandThumb3
										{
											OFFSET 5.159721 -2.978973 2.978967
											CHANNELS 3 Xrotation Yrotation Zrotation
											End Site
											{
												OFFSET 2.494507 5.926697 1.738678
											}
										}
									}
								}
								JOINT newVegas:LeftHandIndex1
								{
									OFFSET 18.578728 -0.527832 5.208049
									CHANNELS 3 Xrotation Yrotation Zrotation
									JOINT newVegas:LeftHandIndex2
									{
										OFFSET 3.192009 0.000000 0.000000
										CHANNELS 3 Xrotation Yrotation Zrotation
										JOINT newVegas:LeftHandIndex3
										{
											OFFSET 3.835129 0.000000 0.000000
											CHANNELS 3 Xrotation Yrotation Zrotation
											End Site
											{
												OFFSET -0.034599 3.816971 0.371180
											}
										}
									}
								}
								JOINT newVegas:LeftHandMiddle1
								{
									OFFSET 18.476105 0.000000 0.000000
									CHANNELS 3 Xrotation Yrotation Zrotation
									JOINT newVegas:LeftHandMiddle2
									{
										OFFSET 3.324875 0.000000 0.000000
										CHANNELS 3 Xrotation Yrotation Zrotation
										JOINT newVegas:LeftHandMiddle3
										{
											OFFSET 4.596550 0.000000 0.000000
											CHANNELS 3 Xrotation Yrotation Zrotation
											End Site
											{
												OFFSET 0.057701 4.578827 0.399218
											}
										}
									}
								}
								JOINT newVegas:LeftHandRing1
								{
									OFFSET 17.732719 0.121887 -4.201567
									CHANNELS 3 Xrotation Yrotation Zrotation
									JOINT newVegas:LeftHandRing2
									{
										OFFSET 2.733170 0.000000 0.000000
										CHANNELS 3 Xrotation Yrotation Zrotation
										JOINT newVegas:LeftHandRing3
										{
											OFFSET 3.178268 0.000000 0.000000
											CHANNELS 3 Xrotation Yrotation Zrotation
											End Site
											{
												OFFSET 0.119102 3.170624 0.185394
											}
										}
									}
								}
								JOINT newVegas:LeftHandPinky1
								{
									OFFSET 15.989624 -0.606689 -7.535461
									CHANNELS 3 Xrotation Yrotation Zrotation
									JOINT newVegas:LeftHandPinky2
									{
										OFFSET 2.538986 0.000000 0.000000
										CHANNELS 3 Xrotation Yrotation Zrotation
										JOINT newVegas:LeftHandPinky3
										{
											OFFSET 2.593102 0.000000 0.000000
											CHANNELS 3 Xrotation Yrotation Zrotation
											End Site
											{
												OFFSET -0.150902 2.584198 0.152708
											}
										}
									}
								}
							}
							JOINT newVegas:Left_Sleeve
							{
								OFFSET 0.267448 -0.649796 0.577675
								CHANNELS 3 Xrotation Yrotation Zrotation
								End Site
								{
									OFFSET 0.000000 15.991241 0.000000
								}
							}
							JOINT newVegas:Left_CapeC
							{
								OFFSET 15.715958 -8.608795 -6.935905
								CHANNELS 3 Xrotation Yrotation Zrotation
								JOINT newVegas:Left_CapeC1
								{
									OFFSET 0.000000 -8.688499 0.000000
									CHANNELS 3 Xrotation Yrotation Zrotation
									End Site
									{
										OFFSET 0.000000 8.688499 0.000000
									}
								}
							}
						}
						JOINT newVegas:Left_CapeB
						{
							OFFSET 26.118385 -8.608795 -7.079235
							CHANNELS 3 Xrotation Yrotation Zrotation
							JOINT newVegas:Left_CapeB1
							{
								OFFSET 0.000000 -8.688499 0.000000
								CHANNELS 3 Xrotation Yrotation Zrotation
								End Site
								{
									OFFSET 0.000000 8.688499 0.000000
								}
							}
						}
						JOINT newVegas:Left_CapeA
						{
							OFFSET 5.115639 -8.608795 -10.395809
							CHANNELS 3 Xrotation Yrotation Zrotation
							JOINT newVegas:Left_CapeA1
							{
								OFFSET 0.000000 -8.688499 0.000000
								CHANNELS 3 Xrotation Yrotation Zrotation
								End Site
								{
									OFFSET 0.000000 8.688499 0.000000
								}
							}
						}
					}
				}
				JOINT newVegas:RightShoulder
				{
					OFFSET -15.263000 10.923401 -0.547700
					CHANNELS 3 Xrotation Yrotation Zrotation
					JOINT newVegas:RightArm
					{
						OFFSET -25.438599 -2.830597 -13.032500
						CHANNELS 3 Xrotation Yrotation Zrotation
						JOINT newVegas:RightForeArm
						{
							OFFSET -29.960503 0.000000 0.000000
							CHANNELS 3 Xrotation Yrotation Zrotation
							JOINT newVegas:RightHand
							{
								OFFSET -27.849251 0.000000 0.000000
								CHANNELS 3 Xrotation Yrotation Zrotation
								JOINT newVegas:RightHandThumb1
								{
									OFFSET -4.487587 -3.305161 6.305391
									CHANNELS 3 Xrotation Yrotation Zrotation
									JOINT newVegas:RightHandThumb2
									{
										OFFSET -5.480453 -3.164139 3.164143
										CHANNELS 3 Xrotation Yrotation Zrotation
										JOINT newVegas:RightHandThumb3
										{
											OFFSET -5.159721 -2.978973 2.978967
											CHANNELS 3 Xrotation Yrotation Zrotation
											End Site
											{
												OFFSET -2.494507 5.926697 1.738678
											}
										}
									}
								}
								JOINT newVegas:RightHandIndex1
								{
									OFFSET -18.578728 -0.527832 5.208049
									CHANNELS 3 Xrotation Yrotation Zrotation
									JOINT newVegas:RightHandIndex2
									{
										OFFSET -3.192009 0.000000 0.000000
										CHANNELS 3 Xrotation Yrotation Zrotation
										JOINT newVegas:RightHandIndex3
										{
											OFFSET -3.835129 0.000000 0.000000
											CHANNELS 3 Xrotation Yrotation Zrotation
											End Site
											{
												OFFSET 0.034599 3.816971 0.371180
											}
										}
									}
								}
								JOINT newVegas:RightHandMiddle1
								{
									OFFSET -18.476105 0.000000 0.000000
									CHANNELS 3 Xrotation Yrotation Zrotation
									JOINT newVegas:RightHandMiddle2
									{
										OFFSET -3.324875 0.000000 0.000000
										CHANNELS 3 Xrotation Yrotation Zrotation
										JOINT newVegas:RightHandMiddle3
										{
											OFFSET -4.596550 0.000000 0.000000
											CHANNELS 3 Xrotation Yrotation Zrotation
											End Site
											{
												OFFSET -0.057701 4.578827 0.399218
											}
										}
									}
								}
								JOINT newVegas:RightHandRing1
								{
									OFFSET -17.732719 0.121887 -4.201567
									CHANNELS 3 Xrotation Yrotation Zrotation
									JOINT newVegas:RightHandRing2
									{
										OFFSET -2.733170 0.000000 0.000000
										CHANNELS 3 Xrotation Yrotation Zrotation
										JOINT newVegas:RightHandRing3
										{
											OFFSET -3.178268 0.000000 0.000000
											CHANNELS 3 Xrotation Yrotation Zrotation
											End Site
											{
												OFFSET -0.119102 3.170624 0.185394
											}
										}
									}
								}
								JOINT newVegas:RightHandPinky1
								{
									OFFSET -15.989624 -0.606689 -7.535461
									CHANNELS 3 Xrotation Yrotation Zrotation
									JOINT newVegas:RightHandPinky2
									{
										OFFSET -2.538986 0.000000 0.000000
										CHANNELS 3 Xrotation Yrotation Zrotation
										JOINT newVegas:RightHandPinky3
										{
											OFFSET -2.593102 0.000000 0.000000
											CHANNELS 3 Xrotation Yrotation Zrotation
											End Site
											{
												OFFSET 0.150902 2.584198 0.152708
											}
										}
									}
								}
							}
							JOINT newVegas:Right_CapeC
							{
								OFFSET -15.715958 -8.608795 -6.935905
								CHANNELS 3 Xrotation Yrotation Zrotation
								JOINT newVegas:Right_CapeC1
								{
									OFFSET 0.000000 -8.688499 0.000000
									CHANNELS 3 Xrotation Yrotation Zrotation
									End Site
									{
										OFFSET 0.000000 8.688499 0.000000
									}
								}
							}
							JOINT newVegas:Right_Sleeve
							{
								OFFSET -0.267448 -0.649994 0.577675
								CHANNELS 3 Xrotation Yrotation Zrotation
								End Site
								{
									OFFSET 0.000000 15.991302 0.000000
								}
							}
						}
						JOINT newVegas:Right_CapeA
						{
							OFFSET -5.115540 -8.608795 -10.395824
							CHANNELS 3 Xrotation Yrotation Zrotation
							JOINT newVegas:Right_CapeA1
							{
								OFFSET 0.000000 -8.688499 0.000000
								CHANNELS 3 Xrotation Yrotation Zrotation
								End Site
								{
									OFFSET 0.000000 8.688499 0.000000
								}
							}
						}
						JOINT newVegas:Right_CapeB
						{
							OFFSET -26.118187 -8.608795 -7.079266
							CHANNELS 3 Xrotation Yrotation Zrotation
							JOINT newVegas:Right_CapeB1
							{
								OFFSET 0.000000 -8.688499 0.000000
								CHANNELS 3 Xrotation Yrotation Zrotation
								End Site
								{
									OFFSET 0.000000 8.688499 0.000000
								}
							}
						}
					}
				}
				JOINT newVegas:Left_Collar
				{
					OFFSET 18.625099 8.655502 8.828100
					CHANNELS 3 Xrotation Yrotation Zrotation
					JOINT newVegas:Left_Collar1
					{
						OFFSET 14.783401 10.540405 -1.259500
						CHANNELS 3 Xrotation Yrotation Zrotation
						End Site
						{
							OFFSET 0.000000 18.199875 0.000000
						}
					}
				}
				JOINT newVegas:Collar_Back
				{
					OFFSET 0.000000 15.630707 -20.132601
					CHANNELS 3 Xrotation Yrotation Zrotation
					End Site
					{
						OFFSET 0.000000 22.523010 0.000000
					}
				}
				JOINT newVegas:Left_Peck
				{
					OFFSET 17.239599 -5.132599 25.482599
					CHANNELS 3 Xrotation Yrotation Zrotation
					End Site
					{
						OFFSET 0.000000 22.523010 0.000000
					}
				}
				JOINT newVegas:Right_Peck
				{
					OFFSET -17.239599 -5.132202 25.482599
					CHANNELS 3 Xrotation Yrotation Zrotation
					End Site
					{
						OFFSET 0.000000 22.523010 0.000000
					}
				}
				JOINT newVegas:Right_Collar
				{
					OFFSET -18.625099 8.655792 8.828100
					CHANNELS 3 Xrotation Yrotation Zrotation
					JOINT newVegas:Right_Collar1
					{
						OFFSET -14.783401 10.539993 -1.259500
						CHANNELS 3 Xrotation Yrotation Zrotation
						End Site
						{
							OFFSET 0.000000 18.199631 0.000000
						}
					}
				}
			}
		}
		JOINT newVegas:Belly
		{
			OFFSET 0.000000 -6.540398 9.014299
			CHANNELS 3 Xrotation Yrotation Zrotation
			End Site
			{
				OFFSET 0.000000 11.566666 0.000000
			}
		}
	}
	JOINT newVegas:ElvisFacialAnim_Joint
	{
		OFFSET 1.000000 -95.330101 -8.825800
		CHANNELS 3 Xrotation Yrotation Zrotation
		End Site
		{
			OFFSET 0.000000 35.315800 0.000000
		}
	}
}
MOTION
Frames: 4
Frame Time: 0.033333
-1.268484 83.621788 11.691107 15.267223 -7.376510 -8.747394 0.000001 -0.000000 -0.000000 -71.019672 -8.137918 8.963252 46.287126 -9.833697 7.381416 4.136511 -27.333010 -11.599972 -0.000000 -0.000002 -0.000000 -0.000000 0.000001 -0.000000 15.416709 -8.577922 -3.985453 -0.044273 5.551835 -6.172900 -6.656035 -3.894927 29.926921 -0.000001 -0.000001 0.000000 0.000001 -0.000000 -0.000002 3.114050 2.167907 -3.013014 2.834051 2.779388 -1.369400 2.755052 2.857054 -1.423801 0.276751 -0.048781 -0.827891 0.276726 -0.048781 -0.827877 0.000001 0.000000 0.000002 0.276676 -0.048780 -0.827884 0.276807 -0.048778 -0.827879 -0.000003 0.000000 0.000001 0.000001 0.000000 0.000001 0.023431 3.350534 1.983047 -46.834512 -32.614577 -85.917141 0.000004 -120.156278 -0.000003 -11.690127 -26.797322 24.744664 4.891673 7.994765 1.883998 10.475080 36.544323 -16.206446 -0.000001 0.000000 -0.000004 7.775680 6.956305 -86.152707 10.250105 6.003552 -119.372063 0.000001 -0.000002 -0.000001 6.544552 6.872983 -87.274313 9.404141 6.404043 -111.556032 0.000001 0.000000 0.000000 3.127848 6.869445 -89.819672 9.007619 6.545887 -108.040718 -0.000002 -0.000001 -0.000000 1.160394 7.315446 -94.148434 8.017657 2.700438 -99.510699 0.000001 -0.000005 0.000001 0.000001 0.000002 0.000001 0.000001 0.000002 0.000001 0.000001 0.000002 0.000001 -0.000000 0.000001 -0.000000 -0.000000 0.000000 0.000001 -0.000000 0.000001 -0.000000 -0.000000 0.000000 -0.000000 0.009640 -7.477864 1.070009 -2.045066 51.801049 -28.381115 0.000011 73.809934 -0.000021 -32.203567 -1.213748 5.900082 2.101985 -10.083004 3.633755 25.660739 -30.716734 6.844831 0.000001 -0.000005 -0.000003 9.556187 -7.137713 86.157919 10.350209 -6.061967 119.375533 -0.000002 0.000001 0.000001 6.610152 -6.940046 87.289442 9.494150 -6.467119 111.542583 -0.000000 -0.000004 0.000004 1.946412 -7.142773 92.181141 8.379083 -6.799996 101.912310 -0.000001 -0.000001 0.000000 -2.850663 -7.675002 94.127499 8.100930 -6.852397 99.572683 0.000002 0.000003 0.000000 -0.000004 0.000001 0.000001 -0.000003 -0.000000 -0.000002 -0.000004 0.000001 -0.000001 0.000000 -0.000001 0.000000 0.000000 0.000000 0.000000 0.000000 -0.000001 0.000000 0.000000 -0.000000 0.000001 -0.000000 0.000000 -0.000001 -0.000000 0.000000 -0.000001 -0.000000 0.000000 -0.000001 -0.000000 0.000000 -0.000001 -0.000000 0.000000 -0.000001 -0.000000 0.000000 -0.000001 -0.000000 0.000000 -0.000001 0.000001 0.000000 -0.000000 0.000001 -0.000000 -0.000000 
-0.624791 83.993950 11.712318 14.946611 -3.506901 -6.854826 -0.000000 -0.000000 0.000001 -68.911589 -3.711610 7.175007 41.734877 -9.730906 5.275007 8.365771 -28.144892 -7.826032 -0.000000 0.000002 -0.000000 0.000000 0.000000 -0.000000 17.253172 -9.932113 -5.595495 -0.458695 2.034843 -5.975378 -6.235947 -3.888696 30.921687 0.000001 -0.000001 0.000001 0.000004 -0.000002 -0.000002 3.955025 4.247049 -2.958664 2.302466 5.347116 -0.592625 2.099298 5.447714 -0.837878 0.547693 -0.342080 -0.897121 0.547697 -0.342081 -0.897124 -0.000001 0.000000 0.000001 0.547765 -0.342098 -0.897109 0.547627 -0.342069 -0.897120 -0.000003 -0.000000 -0.000000 -0.000001 0.000000 0.000001 0.239881 3.744931 -1.150898 -44.477816 -38.220461 -88.025292 0.000032 -118.401903 0.000035 -14.398105 -28.889538 24.465919 4.891671 7.994768 1.883998 10.475082 36.544330 -16.206449 -0.000001 -0.000005 -0.000002 7.775684 6.956306 -86.152707 10.250109 6.003550 -119.372063 0.000005 0.000000 -0.000000 6.544548 6.872986 -87.274313 9.404149 6.404043 -111.556039 -0.000001 0.000001 0.000000 3.127848 6.869446 -89.819672 9.007617 6.545884 -108.040718 -0.000001 0.000006 -0.000001 1.160402 7.315443 -94.148434 8.017664 2.700434 -99.510699 0.000001 -0.000005 0.000001 -0.000000 -0.000002 -0.000001 -0.000000 -0.000002 -0.000001 -0.000000 -0.000001 -0.000001 -0.000000 0.000001 -0.000001 -0.000000 0.000000 -0.000001 -0.000000 0.000001 -0.000001 -0.000000 0.000002 -0.000001 1.934088 -1.058596 -1.355277 -22.428104 67.083372 0.865893 0.000001 30.957846 -0.000003 -9.226717 0.738826 11.274892 2.101983 -10.083009 3.633752 25.660742 -30.716730 6.844835 0.000001 -0.000000 -0.000000 9.556188 -7.137714 86.157919 10.350211 -6.061967 119.375533 -0.000002 -0.000002 0.000003 6.610154 -6.940042 87.289442 9.494145 -6.467118 111.542597 -0.000001 -0.000002 0.000002 1.946413 -7.142774 92.181141 8.379086 -6.799995 101.912310 -0.000000 0.000002 0.000003 -2.850661 -7.674998 94.127499 8.100930 -6.852394 99.572677 0.000002 0.000002 0.000000 -0.000001 0.000003 0.000001 0.000000 0.000001 0.000001 -0.000001 0.000003 0.000000 0.000001 0.000000 -0.000000 0.000000 0.000000 -0.000000 0.000001 0.000000 -0.000000 0.000000 -0.000000 -0.000000 -0.000001 -0.000001 -0.000000 -0.000001 -0.000001 -0.000000 -0.000001 -0.000001 -0.000000 -0.000001 -0.000001 -0.000000 -0.000001 -0.000001 -0.000000 -0.000001 -0.000001 -0.000000 -0.000001 -0.000001 -0.000000 -0.000000 -0.000000 -0.000000 -0.000000 -0.000000 0.000001 
-0.233199 84.018585 11.961700 14.224811 -0.855177 -5.714110 -0.000000 0.000000 0.000000 -67.491053 -0.668918 6.467294 39.941997 -9.466717 3.383985 10.819352 -28.666560 -4.682721 0.000000 -0.000000 -0.000000 -0.000001 0.000000 -0.000000 19.273124 -11.020037 -6.043875 -0.781872 -1.931863 -5.650922 -5.953922 -3.848818 31.404732 0.000001 0.000001 0.000000 -0.000000 0.000000 -0.000002 4.487744 5.539175 -2.860258 2.082005 6.906146 -0.394837 1.842558 7.002780 -0.813912 0.755492 -0.568656 -0.651019 0.755384 -0.568647 -0.651055 -0.000002 -0.000000 -0.000000 0.755765 -0.568496 -0.651044 0.755282 -0.569125 -0.650929 -0.000001 -0.000000 0.000001 -0.000002 -0.000000 -0.000001 0.427794 3.573470 -3.528392 -42.706089 -43.910217 -86.727112 0.000070 -115.793399 0.000072 -16.427430 -27.313672 23.253260 4.891670 7.994767 1.883994 10.475079 36.544319 -16.206449 0.000000 -0.000002 -0.000003 7.775682 6.956304 -86.152707 10.250104 6.003551 -119.372063 0.000001 0.000000 -0.000001 6.544551 6.872985 -87.274313 9.404147 6.404041 -111.556039 -0.000001 -0.000000 0.000001 3.127849 6.869444 -89.819672 9.007620 6.545886 -108.040718 -0.000002 -0.000001 -0.000000 1.160401 7.315443 -94.148434 8.017658 2.700434 -99.510699 -0.000000 -0.000002 0.000002 -0.000000 0.000002 0.000001 -0.000000 0.000002 0.000001 -0.000000 0.000003 0.000000 0.000003 0.000000 -0.000000 0.000003 -0.000001 0.000000 0.000003 0.000000 -0.000000 0.000002 -0.000000 0.000000 5.300456 5.392497 -5.224293 -67.577817 53.510595 42.125421 0.000002 11.980564 0.000005 10.321314 3.208780 6.349060 2.101982 -10.083008 3.633749 25.660739 -30.716730 6.844832 0.000001 -0.000003 -0.000003 9.556187 -7.137714 86.157919 10.350214 -6.061964 119.375533 -0.000001 -0.000001 0.000001 6.610154 -6.940044 87.289442 9.494145 -6.467116 111.542590 0.000000 0.000000 -0.000005 1.946412 -7.142772 92.181141 8.379085 -6.799994 101.912310 -0.000001 0.000001 -0.000000 -2.850661 -7.675004 94.127499 8.100927 -6.852398 99.572683 -0.000000 0.000002 -0.000000 -0.000001 -0.000000 0.000001 -0.000001 -0.000000 0.000000 -0.000001 -0.000000 0.000000 -0.000001 0.000000 0.000000 -0.000001 0.000000 -0.000000 -0.000001 0.000000 0.000000 -0.000001 -0.000000 -0.000000 -0.000001 -0.000002 0.000000 -0.000001 -0.000002 0.000000 -0.000001 -0.000002 0.000000 -0.000001 -0.000002 0.000000 -0.000001 -0.000002 0.000000 -0.000001 -0.000002 0.000000 -0.000001 -0.000002 0.000000 -0.000001 -0.000000 -0.000000 -0.000000 0.000000 0.000000 
0.064960 83.804558 12.485692 13.774611 1.665194 -5.578106 -0.000000 -0.000000 -0.000000 -67.289835 0.871495 5.939089 39.871680 -9.333953 1.990821 12.307346 -29.568213 -2.211526 -0.000000 -0.000000 -0.000000 0.000000 0.000000 0.000000 21.006795 -11.396393 -4.795557 -1.008189 -5.996127 -5.289210 -5.527813 -3.511461 29.849238 -0.000001 -0.000001 0.000000 0.000002 -0.000000 -0.000001 4.693777 5.784132 -2.646305 2.350272 7.144539 -0.614221 2.169552 7.210496 -1.048250 0.814653 -0.636120 -0.374523 0.814648 -0.636122 -0.374517 0.000002 0.000002 -0.000000 0.814651 -0.636141 -0.374519 0.814725 -0.636122 -0.374517 -0.000001 0.000000 0.000001 0.000002 0.000002 -0.000000 0.473915 3.005852 -4.012457 -42.815000 -47.560093 -84.833886 0.000185 -113.363778 0.000191 -17.082626 -24.312557 20.359979 4.891669 7.994764 1.883997 10.475079 36.544323 -16.206449 0.000002 0.000000 -0.000001 7.775679 6.956306 -86.152707 10.250107 6.003551 -119.372063 -0.000001 0.000002 0.000003 6.544547 6.872986 -87.274313 9.404146 6.404045 -111.556039 0.000000 0.000002 0.000000 3.127844 6.869444 -89.819679 9.007615 6.545886 -108.040725 -0.000001 0.000003 0.000002 1.160397 7.315442 -94.148434 8.017659 2.700435 -99.510699 -0.000000 -0.000005 -0.000001 -0.000001 -0.000002 -0.000002 -0.000001 -0.000002 -0.000002 -0.000001 -0.000002 -0.000002 0.000002 -0.000003 0.000000 0.000002 -0.000003 0.000000 0.000002 -0.000003 0.000000 0.000003 -0.000003 -0.000001 8.721294 9.687847 -8.857855 -79.713212 41.047258 43.785454 -0.000002 8.115786 0.000003 14.670377 1.784036 3.999898 2.101984 -10.083005 3.633753 25.660739 -30.716727 6.844832 0.000001 -0.000006 -0.000001 9.556189 -7.137713 86.157919 10.350211 -6.061967 119.375533 -0.000001 0.000000 -0.000000 6.610155 -6.940043 87.289442 9.494147 -6.467116 111.542590 0.000001 0.000000 0.000000 1.946414 -7.142772 92.181148 8.379085 -6.799995 101.912317 0.000000 -0.000001 0.000002 -2.850663 -7.674997 94.127499 8.100930 -6.852398 99.572683 0.000001 0.000002 -0.000002 -0.000000 0.000001 0.000001 0.000001 -0.000000 0.000000 -0.000000 0.000001 0.000001 0.000000 0.000001 0.000000 0.000000 0.000001 0.000001 0.000000 0.000001 0.000000 0.000000 0.000001 0.000001 -0.000000 0.000001 -0.000000 -0.000000 0.000001 -0.000000 -0.000000 0.000001 -0.000000 -0.000000 0.000001 -0.000000 -0.000000 0.000001 -0.000000 -0.000000 0.000001 -0.000000 -0.000000 0.000001 -0.000000 0.000002 0.000001 0.000000 -0.000000 -0.000000 -0.000000 
